<?xml version="1.0" encoding="utf-8"?>
<!-- Generated by IcoMoon.io -->
<!DOCTYPE svg PUBLIC "-//W3C//DTD SVG 1.1//EN" "http://www.w3.org/Graphics/SVG/1.1/DTD/svg11.dtd">
<svg version="1.1" xmlns="http://www.w3.org/2000/svg" xmlns:xlink="http://www.w3.org/1999/xlink" width="80" height="80" viewBox="0 0 80 80">
<path d="M38 80c-10.15 0-19.693-3.953-26.87-11.13s-11.13-16.72-11.13-26.87c0-10.15 3.953-19.693 11.13-26.87s16.72-11.13 26.87-11.13c10.15 0 19.693 3.953 26.87 11.13s11.13 16.72 11.13 26.87-3.953 19.693-11.13 26.87c-7.177 7.177-16.72 11.13-26.87 11.13zM38 8c-18.748 0-34 15.252-34 34s15.252 34 34 34c18.748 0 34-15.252 34-34s-15.252-34-34-34z" fill="#444444"></path>
<path d="M26 64c-0.334 0-0.667-0.083-0.97-0.251-0.636-0.352-1.030-1.022-1.030-1.749v-40c0-0.727 0.395-1.397 1.030-1.749s1.413-0.332 2.030 0.053l32 20c0.585 0.365 0.94 1.007 0.94 1.696s-0.355 1.331-0.94 1.696l-32 20c-0.324 0.203-0.692 0.304-1.060 0.304zM28 25.609v32.783l26.226-16.391-26.226-16.391z" fill="#444444"></path>
</svg>
