<?xml version="1.0" encoding="utf-8"?>
<!-- Generated by IcoMoon.io -->
<!DOCTYPE svg PUBLIC "-//W3C//DTD SVG 1.1//EN" "http://www.w3.org/Graphics/SVG/1.1/DTD/svg11.dtd">
<svg version="1.1" xmlns="http://www.w3.org/2000/svg" xmlns:xlink="http://www.w3.org/1999/xlink" width="80" height="80" viewBox="0 0 80 80">
<path d="M66 80h-52c-3.308 0-6-2.691-6-6v-64c0-3.308 2.692-6 6-6h52c3.309 0 6 2.692 6 6v64c0 3.309-2.691 6-6 6zM14 8c-1.103 0-2 0.897-2 2v64c0 1.103 0.897 2 2 2h52c1.103 0 2-0.897 2-2v-64c0-1.103-0.897-2-2-2h-52z" fill="#444444"></path>
<path d="M50 20h-28c-1.105 0-2-0.895-2-2s0.895-2 2-2h28c1.105 0 2 0.895 2 2s-0.895 2-2 2z" fill="#444444"></path>
<path d="M58 28h-36c-1.105 0-2-0.895-2-2s0.895-2 2-2h36c1.105 0 2 0.895 2 2s-0.895 2-2 2z" fill="#444444"></path>
<path d="M58 36h-36c-1.105 0-2-0.895-2-2s0.895-2 2-2h36c1.105 0 2 0.895 2 2s-0.895 2-2 2z" fill="#444444"></path>
<path d="M42 44h-20c-1.105 0-2-0.895-2-2s0.895-2 2-2h20c1.105 0 2 0.895 2 2s-0.895 2-2 2z" fill="#444444"></path>
<path d="M58 60h-36c-1.105 0-2-0.895-2-2s0.895-2 2-2h36c1.105 0 2 0.895 2 2s-0.895 2-2 2z" fill="#444444"></path>
<path d="M50 68h-28c-1.105 0-2-0.895-2-2s0.895-2 2-2h28c1.105 0 2 0.895 2 2s-0.895 2-2 2z" fill="#444444"></path>
</svg>
