<?xml version="1.0" encoding="utf-8"?>
<!-- Generated by IcoMoon.io -->
<!DOCTYPE svg PUBLIC "-//W3C//DTD SVG 1.1//EN" "http://www.w3.org/Graphics/SVG/1.1/DTD/svg11.dtd">
<svg version="1.1" xmlns="http://www.w3.org/2000/svg" xmlns:xlink="http://www.w3.org/1999/xlink" width="80" height="80" viewBox="0 0 80 80">
<path d="M14 80h-8c-3.308 0-6-2.692-6-6v-8c0-3.308 2.692-6 6-6h8c3.308 0 6 2.692 6 6v8c0 3.308-2.692 6-6 6zM6 64c-1.103 0-2 0.897-2 2v8c0 1.103 0.897 2 2 2h8c1.103 0 2-0.897 2-2v-8c0-1.103-0.897-2-2-2h-8z" fill="#444444"></path>
<path d="M42 80h-8c-3.308 0-6-2.692-6-6v-8c0-3.308 2.692-6 6-6h8c3.308 0 6 2.692 6 6v8c0 3.308-2.692 6-6 6zM34 64c-1.103 0-2 0.897-2 2v8c0 1.103 0.897 2 2 2h8c1.103 0 2-0.897 2-2v-8c0-1.103-0.897-2-2-2h-8z" fill="#444444"></path>
<path d="M70 80h-8c-3.308 0-6-2.692-6-6v-8c0-3.308 2.692-6 6-6h8c3.308 0 6 2.692 6 6v8c0 3.308-2.692 6-6 6zM62 64c-1.103 0-2 0.897-2 2v8c0 1.103 0.897 2 2 2h8c1.103 0 2-0.897 2-2v-8c0-1.103-0.897-2-2-2h-8z" fill="#444444"></path>
<path d="M14 52h-8c-3.308 0-6-2.692-6-6v-8c0-3.308 2.692-6 6-6h8c3.308 0 6 2.692 6 6v8c0 3.308-2.692 6-6 6zM6 36c-1.103 0-2 0.897-2 2v8c0 1.103 0.897 2 2 2h8c1.103 0 2-0.897 2-2v-8c0-1.103-0.897-2-2-2h-8z" fill="#444444"></path>
<path d="M42 52h-8c-3.308 0-6-2.692-6-6v-8c0-3.308 2.692-6 6-6h8c3.308 0 6 2.692 6 6v8c0 3.308-2.692 6-6 6zM34 36c-1.103 0-2 0.897-2 2v8c0 1.103 0.897 2 2 2h8c1.103 0 2-0.897 2-2v-8c0-1.103-0.897-2-2-2h-8z" fill="#444444"></path>
<path d="M70 52h-8c-3.308 0-6-2.692-6-6v-8c0-3.308 2.692-6 6-6h8c3.308 0 6 2.692 6 6v8c0 3.308-2.692 6-6 6zM62 36c-1.103 0-2 0.897-2 2v8c0 1.103 0.897 2 2 2h8c1.103 0 2-0.897 2-2v-8c0-1.103-0.897-2-2-2h-8z" fill="#444444"></path>
<path d="M14 24h-8c-3.308 0-6-2.692-6-6v-8c0-3.308 2.692-6 6-6h8c3.308 0 6 2.692 6 6v8c0 3.308-2.692 6-6 6zM6 8c-1.103 0-2 0.897-2 2v8c0 1.103 0.897 2 2 2h8c1.103 0 2-0.897 2-2v-8c0-1.103-0.897-2-2-2h-8z" fill="#444444"></path>
<path d="M42 24h-8c-3.308 0-6-2.692-6-6v-8c0-3.308 2.692-6 6-6h8c3.308 0 6 2.692 6 6v8c0 3.308-2.692 6-6 6zM34 8c-1.103 0-2 0.897-2 2v8c0 1.103 0.897 2 2 2h8c1.103 0 2-0.897 2-2v-8c0-1.103-0.897-2-2-2h-8z" fill="#444444"></path>
<path d="M70 24h-8c-3.308 0-6-2.692-6-6v-8c0-3.308 2.692-6 6-6h8c3.308 0 6 2.692 6 6v8c0 3.308-2.692 6-6 6zM62 8c-1.103 0-2 0.897-2 2v8c0 1.103 0.897 2 2 2h8c1.103 0 2-0.897 2-2v-8c0-1.103-0.897-2-2-2h-8z" fill="#444444"></path>
</svg>
