<?xml version="1.0" encoding="utf-8"?>
<!-- Generated by IcoMoon.io -->
<!DOCTYPE svg PUBLIC "-//W3C//DTD SVG 1.1//EN" "http://www.w3.org/Graphics/SVG/1.1/DTD/svg11.dtd">
<svg version="1.1" xmlns="http://www.w3.org/2000/svg" xmlns:xlink="http://www.w3.org/1999/xlink" width="80" height="80" viewBox="0 0 80 80">
<path d="M40 48c-13.234 0-24-10.766-24-24s10.766-24 24-24 24 10.766 24 24-10.766 24-24 24zM40 4c-11.028 0-20 8.972-20 20s8.972 20 20 20c11.028 0 20-8.972 20-20s-8.972-20-20-20z" fill="#444444"></path>
<path d="M74 80h-68c-3.308 0-6-2.691-6-6 0-0.237 0.060-5.862 5.3-11.377 2.979-3.135 7.039-5.62 12.069-7.385 6.123-2.148 13.737-3.238 22.631-3.238s16.508 1.089 22.631 3.238c5.030 1.765 9.091 4.25 12.069 7.385 5.24 5.515 5.3 11.141 5.3 11.377 0 3.309-2.691 6-6 6zM40 56c-35.588 0-36 17.82-36 18 0 1.103 0.897 2 2 2h68c1.1 0 1.995-0.892 2-1.99-0.005-0.254-0.16-4.522-4.418-8.858-4.1-4.175-12.908-9.152-31.582-9.152z" fill="#444444"></path>
</svg>
